<svg width="16" height="16" viewBox="0 0 16 16" xmlns="http://www.w3.org/2000/svg"><title>Fill 3</title><path d="M13.152 11.103a2.18 2.18 0 0 0-1.155.335c-.002-.003 0 0 0 0a.792.792 0 0 1-.788.007L4.874 8.04a.315.315 0 0 1 0-.576l6.335-3.406a.792.792 0 0 1 .788.008s-.002.002 0 0c.337.208.73.334 1.155.334a2.2 2.2 0 1 0 0-4.399 2.192 2.192 0 0 0-2.177 1.967c-.004-.004 0 0 0 0a.784.784 0 0 1-.439.617L4.28 5.948a.78.78 0 0 1-.4.108.77.77 0 0 1-.46-.146 2.186 2.186 0 0 0-1.198-.359 2.2 2.2 0 0 0 0 4.4c.443 0 .853-.133 1.199-.359a.766.766 0 0 1 .458-.146.78.78 0 0 1 .4.109l6.257 3.363a.784.784 0 0 1 .44.617s-.005.005 0 0a2.193 2.193 0 0 0 2.176 1.968 2.2 2.2 0 0 0 0-4.4" fill="#82878c" fill-rule="evenodd"/></svg>