<?xml version="1.0" encoding="UTF-8" standalone="no"?>
<svg width="16px" height="16px" viewBox="0 0 16 16" version="1.1" xmlns="http://www.w3.org/2000/svg" xmlns:xlink="http://www.w3.org/1999/xlink">
    <!-- Generator: Sketch 44.1 (41455) - http://www.bohemiancoding.com/sketch -->
    <title>Fill 3</title>
    <desc>Created with Sketch.</desc>
    <defs></defs>
    <g id="Page-1" stroke="none" stroke-width="1" fill="#82878c" fill-rule="evenodd">
        <g id="Desktop-HD" transform="translate(-10.000000, -438.000000)" fill="#82878c">
            <path d="M23.1516432,449.103011 C22.7268877,449.103011 22.3335062,449.22899 21.9970806,449.437989 C21.9951499,449.435093 21.9970806,449.437989 21.9970806,449.437989 C21.8807555,449.508943 21.7354698,449.545626 21.5892188,449.545626 C21.453104,449.545626 21.3198852,449.507494 21.2088696,449.445229 L14.8737383,446.03898 C14.7641707,445.99023 14.6879078,445.878731 14.6879078,445.751305 C14.6879078,445.623395 14.765136,445.511897 14.8747036,445.462664 L21.2088696,442.056897 C21.3198852,441.995115 21.453104,441.956501 21.5892188,441.956501 C21.7354698,441.956501 21.8807555,441.993667 21.9970806,442.06462 C21.9970806,442.06462 21.9951499,442.067034 21.9970806,442.06462 C22.3335062,442.273137 22.7268877,442.399115 23.1516432,442.399115 C24.3665403,442.399115 25.3516834,441.414455 25.3516834,440.199558 C25.3516834,438.98466 24.3665403,438 23.1516432,438 C22.0163876,438 21.0930272,438.863026 20.9752541,439.96739 C20.9713926,439.963046 20.9752541,439.96739 20.9752541,439.96739 C20.9506375,440.239137 20.7691511,440.467926 20.5360183,440.584251 L14.2795633,443.947542 C14.1642036,444.017047 14.0242273,444.056144 13.8794243,444.056144 C13.7085568,444.056144 13.5483081,444.004498 13.4208815,443.910376 C13.075285,443.684966 12.6650098,443.551264 12.2219126,443.551264 C11.0070155,443.551264 10.0223551,444.536407 10.0223551,445.751305 C10.0223551,446.966202 11.0070155,447.950862 12.2219126,447.950862 C12.6650098,447.950862 13.075285,447.817643 13.4208815,447.592233 C13.5483081,447.497629 13.7085568,447.446465 13.8794243,447.446465 C14.0242273,447.446465 14.1642036,447.485079 14.2795633,447.554585 L20.5360183,450.918358 C20.7686684,451.034201 20.9506375,451.263472 20.9752541,451.535219 C20.9752541,451.535219 20.9713926,451.539563 20.9752541,451.535219 C21.0930272,452.639101 22.0163876,453.502609 23.1516432,453.502609 C24.3665403,453.502609 25.3516834,452.517466 25.3516834,451.302569 C25.3516834,450.087672 24.3665403,449.103011 23.1516432,449.103011" id="Fill-3"></path>
        </g>
    </g>
</svg>